<?xml version="1.0" encoding="utf-8"?>
<!-- Generator: Adobe Illustrator 19.2.1, SVG Export Plug-In . SVG Version: 6.00 Build 0)  -->
<svg version="1.1" id="display-svg" xmlns="http://www.w3.org/2000/svg" xmlns:xlink="http://www.w3.org/1999/xlink" x="0px" y="0px"
	 viewBox="0 0 538.6 430.9" style="enable-background:new 0 0 538.6 430.9;" xml:space="preserve">
<style type="text/css">
	#display-svg .st0{opacity:5.000000e-002;}
	#display-svg .st1{fill:#FFFFFF;}
	#display-svg .st2{fill:#272624;}
	#display-svg .st3{fill:url(#SVGID_1_);}
	#display-svg .st4{fill:url(#SVGID_2_);}
	#display-svg .st5{opacity:0.34;fill:url(#SVGID_3_);}
</style>
<g>
	<path d="M530.7,328.8c0,4.7-3.8,8.6-8.5,8.8l-244.4,9.3c-4.7,0.2-12.3,0.2-17,0l-244.4-9.3c-4.7-0.2-8.5-4.2-8.5-8.8V15.2
		c0-4.7,3.8-8.5,8.5-8.5h505.8c4.7,0,8.5,3.8,8.5,8.5V328.8z"/>
</g>
<g class="st0">
	<path class="st1" d="M526.2,327.3c0,3.1-2.6,5.7-5.7,5.7H350.1c-3.1,0-8.2,0-11.3,0h-64.1c-3.1,0-8.2,0-11.3,0H17.4
		c-3.1,0-5.7-2.6-5.7-5.7V17.2c0-3.1,2.6-5.7,5.7-5.7h503.1c3.1,0,5.7,2.6,5.7,5.7V327.3z"/>
</g>
<g>
	<path class="st2" d="M516.8,314.5c0,1.7-1.4,3.1-3.1,3.1H25.9c-1.7,0-3.1-1.4-3.1-3.1V25c0-1.7,1.4-3.1,3.1-3.1h487.8
		c1.7,0,3.1,1.4,3.1,3.1V314.5z"/>
	<g>
		<linearGradient id="SVGID_1_" gradientUnits="userSpaceOnUse" x1="72.5028" y1="367.0638" x2="467.15" y2="-27.5835">
			<stop  offset="0" style="stop-color:#7F7E7C"/>
			<stop  offset="0.1396" style="stop-color:#63615D"/>
			<stop  offset="0.2986" style="stop-color:#4E4B46"/>
			<stop  offset="0.4624" style="stop-color:#2F2E2B"/>
			<stop  offset="0.6306" style="stop-color:#1A1A19"/>
			<stop  offset="0.806" style="stop-color:#070706"/>
			<stop  offset="1" style="stop-color:#000000"/>
		</linearGradient>
		<path class="st3" d="M513.7,318.7H25.9c-2.3,0-4.2-1.9-4.2-4.2V25c0-2.3,1.9-4.2,4.2-4.2h487.8c2.3,0,4.2,1.9,4.2,4.2v289.5
			C518,316.8,516.1,318.7,513.7,318.7z M25.9,22.9c-1.1,0-2,0.9-2,2v289.5c0,1.1,0.9,2,2,2h487.8c1.1,0,2-0.9,2-2V25
			c0-1.1-0.9-2-2-2H25.9z"/>
	</g>
</g>
<ellipse cx="269.3" cy="404.4" rx="119.9" ry="23"/>
<linearGradient id="SVGID_2_" gradientUnits="userSpaceOnUse" x1="269.4128" y1="407.5588" x2="269.4128" y2="332.9572">
	<stop  offset="0" style="stop-color:#141414"/>
	<stop  offset="0.1745" style="stop-color:#090909"/>
	<stop  offset="0.4332" style="stop-color:#020202"/>
	<stop  offset="1" style="stop-color:#000000"/>
</linearGradient>
<path class="st4" d="M317.9,402c-8.6,7.3-89.2,7.6-97.3,0c-8-7.6,0-13.8,0-13.8l5-20.7l1.8-20.7l-6.7-13.8H269h48.9l-6.9,13.8
	l2.8,20.7l4.2,20.7C317.9,388.2,326.5,394.7,317.9,402z"/>
<linearGradient id="SVGID_3_" gradientUnits="userSpaceOnUse" x1="414.9179" y1="3.4175" x2="414.9179" y2="341.0657">
	<stop  offset="0" style="stop-color:#FFFFFF"/>
	<stop  offset="0.109" style="stop-color:#FAFAFA"/>
	<stop  offset="0.2328" style="stop-color:#EDEDED"/>
	<stop  offset="0.3639" style="stop-color:#D6D6D6"/>
	<stop  offset="0.5002" style="stop-color:#B6B6B6"/>
	<stop  offset="0.6404" style="stop-color:#8D8D8D"/>
	<stop  offset="0.7839" style="stop-color:#5B5B5B"/>
	<stop  offset="0.9274" style="stop-color:#202020"/>
	<stop  offset="1" style="stop-color:#000000"/>
</linearGradient>
<polygon class="st5" points="364.1,341.1 530.7,337.1 530.7,3.4 299.1,3.4 "/>
			<g id="display-image-1" class="display-image"><image style="overflow:visible;" width="1000" height="603" xlink:href="/images/display/1.jpg" transform="matrix(0.494 0 0 0.495 22.0 20)"></image></g>

</svg>
