<svg version="1.1" xmlns="http://www.w3.org/2000/svg" xmlns:xlink="http://www.w3.org/1999/xlink" x="0px" y="0px"
	 viewBox="0 0 453.5 293.5" style="enable-background:new 0 0 453.5 283.5;" xml:space="preserve">
<style type="text/css">
	.st0{fill:none;stroke:#FF0000;stroke-linecap:round;stroke-linejoin:round;stroke-miterlimit:10;stroke-width:2;}
	.st9{fill:none;stroke:#0D0F0F;stroke-linecap:round;stroke-linejoin:round;stroke-miterlimit:10;stroke-width:2;}
	.st1{fill:#FF0000;stroke-width:2;}
	.st2{fill:#FFFFFF;}
	.st3{fill:#FFFFFE;}
	.st4{fill:#FFFFFF;stroke:#FFFEFE;stroke-width:15;stroke-linecap:round;stroke-linejoin:round;stroke-miterlimit:10;}
	.st5{fill:none;stroke:#FFFFFF;stroke-width:5;stroke-linecap:round;stroke-linejoin:round;stroke-miterlimit:10;}
	.st6{fill:none;stroke:#FFFFFF;stroke-width:2;stroke-linecap:round;stroke-linejoin:round;stroke-miterlimit:10;}
			.st0{
  -webkit-animation: blink 1.5s linear infinite;
  animation: blink 1.5s linear infinite;
}
				.st9{
  -webkit-animation: blink2 1.5s linear infinite;
  animation: blink2 1.5s linear infinite;
}
@-webkit-keyframes blink {
  0% { stroke: rgb(255, 16, 16); }
  50% { stroke: rgba(255, 16, 16, 0.8); }
  900% { stroke: rgba(255, 16, 16, 0); }
}
@keyframes blink {
  0% { stroke: rgb(255, 16, 16); }
  50% { stroke: rgba(255, 16, 16, 0.8); }
  100% { stroke: rgba(255, 16, 16, 0); }
}
	@-webkit-keyframes blink2 {
  0% { stroke: rgb(255, 16, 16, 0); }
  32% { stroke: rgb(255, 16, 16, 0); }
  33% { stroke: rgb(255, 16, 16, 1); }
  50% { stroke: rgba(255, 16, 16, 0.6); }
  900% { stroke: rgba(255, 16, 16, 0); }
}
@keyframes blink2 {
  0% { stroke: rgb(255, 16, 16, 0); }
  32% { stroke: rgb(255, 16, 16, 0); }
  33% { stroke: rgb(255, 16, 16, 1); }
  50% { stroke: rgba(255, 16, 16, 0.6); }
  100% { stroke: rgba(255, 16, 16, 0); }
}
</style>
<g id="dot">
				<animateMotion begin="0s" dur="28s" repeatCount="indefinite"
  path="M118.3,94.4l67.4-35.7c0,0,22.1,21.3,28.5,35.7c6.4,14.4,44.2-22.9,44.2-22.9s4.5-3.2,12.5,6.9
		s29.3,31.4,29.3,31.4s-1.6,10.4,21.3-15.4c23.2-25.8,28.5-35.7,28.5-35.7s3.7-14.9,24,8.3c20.2,23.2,32.7,12.5,8,36.5
		c-24.8,24-61,63.1-107.8,86.8s-114.5,35.9-114.5,35.9s-5.3-36.7-14.4-65.2S118.3,94.4,118.3,94.4z"  />
	<circle class="st0" cx="0" cy="0" r="13.8"/>
	<circle class="st9" cx="0" cy="0" r="19.7"/>
	<circle class="st1" cx="0" cy="0" r="8.8"/>

</g>
<g id="laptop">
	<g>
		<path class="st2" d="M400,28.6v203.7H45.9V28.6H400 M400,10H45.9c-10.4,0-18.6,8.3-18.6,18.6v203.7c0,10.4,8.3,18.6,18.6,18.6H400
			c10.4,0,18.6-8.3,18.6-18.6V28.6C418.6,18.5,410.1,10,400,10L400,10z"/>
	</g>
	<path class="st3" d="M404.2,264.3H41.9c-8,0-14.6-6.7-14.6-14.6v-17.3h391.4v17.6C418.6,257.9,411.9,264.3,404.2,264.3z"/>
	<line class="st4" x1="1.1" y1="279.7" x2="452.4" y2="279.7"/>
	<path class="st5" d="M64.5,25.7C75.9,35.8,101,59.5,119.1,88c0,0,62.3-28.2,106.8-63.1"/>
	<path class="st5" d="M172.3,24.1l-37,30.1c0,0-16.5-22.6-30.4-41.3"/>
	<path class="st5" d="M118.3,12.9c3.5,4.5,6.4,8.5,8.5,11.4c10.1,15.2,10.1,15.2,10.1,15.2l22.6-18.9"/>
	<path class="st5" d="M127.1,100c0,0,41.3-21.3,49.8-27.2c8.5-5.9,8.5-5.9,8.5-5.9s21.6,18.9,39.4,71.9s19.4,58.3,19.4,58.3
		s-19.7,10.4-49.5,16.2c-29.8,5.9-32.2,5.3-32.2,5.3S167,170.8,127.1,100z"/>
	<path class="st5" d="M300.1,27.6c-6.7,7.5-16.8,17.3-29,26.6c-24.8,18.6-53,35.9-53,35.9s-7.5-16-21.6-31.4
		c0,0,23.7-13.8,51.1-33.8"/>
	<path class="st5" d="M223.7,102.6c0,0,34.1-21.6,37.3-23.7c3.2-2.1,31.7,33.3,32.2,34.3c0.3,1.1-12.5,13.6-31.1,24.5
		s-18.6,10.9-18.6,10.9S236.2,122.1,223.7,102.6z"/>
	<path class="st5" d="M40.8,179.6l84.4-55.1c0,0,17.3,33.5,21.3,63.9c4,30.4,4,30.1,4,30.1s-49.5,9.3-109.4-17.3"/>
	<path class="st5" d="M90.1,71.2c0,0,13,15.2,21.3,27.7c8.3,12.2,10.1,17,10.1,17l-47.9,32.2l-32.2-32.7L90.1,71.2z"/>
	<polyline class="st5" points="41.6,132.2 63.7,153 41.9,167.9 	"/>
	<path class="st5" d="M40.8,41.1l9.6-10.6c0,0,8.8,5.9,20.8,19.4s12,13.6,12,13.6l-41.5,39.9"/>
	<path class="st5" d="M274,65.9c0,0,26.9-23.7,33-31.9c6.1-8.3,8-11.4,8-11.4l29.8,29.3c0,0,3.5,5.3-22.1,32.5
		c-16,17-18.4,18.9-18.4,18.9L274,65.9z"/>
	<path class="st5" d="M248.2,161c0,0,27.4-14.4,60.4-45.8c37.5-35.4,50.6-56.7,50.6-56.7l29.6,28.2c0,0-49.3,49.3-75.9,68.2
		c-26.9,18.9-57,35.4-57,35.4L248.2,161z"/>
	<path class="st5" d="M40.8,213.9c6.1,2.4,12,4.5,17.6,6.1c30.9,8.3,49.8,12,68.7,13c18.9,1.1,23.2,0,23.2,0v5.3"/>
	<path class="st5" d="M345.1,237.4c20-6.9,39.4-14.6,57.8-22.4"/>
	<path class="st5" d="M402.9,94.4c-17.6,17-42.1,40.2-72.1,66.6c-62,54.3-134.7,66.6-167.7,72.1v10.1"/>
	<polyline class="st5" points="342.4,28.6 398.1,80.8 402.4,76.6 	"/>
	<path class="st5" d="M400.2,37.4c-3.5-3.5-7.2-6.9-11.2-10.9"/>
</g>
</svg>
